<?xml version="1.0" encoding="UTF-8" standalone="no"?>
<!DOCTYPE svg PUBLIC "-//W3C//DTD SVG 1.1//EN" "http://www.w3.org/Graphics/SVG/1.1/DTD/svg11.dtd">
<svg width="100%" height="100%" viewBox="0 0 508 413" version="1.1" xmlns="http://www.w3.org/2000/svg" style="fill-rule:evenodd;clip-rule:evenodd;stroke-linecap:square;stroke-linejoin:round;stroke-miterlimit:1.5;">
    <g transform="matrix(1,0,0,1,-354.303,-132.141)">
        <g id="Artboard3" transform="matrix(2.18423,0,0,1.81434,-235.071,128.425)">
            <rect x="269.831" y="2.048" width="232.415" height="227.289" style="fill:none;"/>
            <g transform="matrix(0.924596,0,0,1.02937,-43.0557,-178.412)">
                <path d="M346.851,186.948L346.851,381.948L373.862,381.948L373.932,237.585L409.86,306.085L415.133,306.085L469.666,215.891C469.666,215.891 474.019,213.679 482.135,212.779C489.501,211.961 521.409,213.294 521.638,239.766C521.846,263.763 507.155,269.293 493.854,271.196C479.749,273.215 463.446,270.482 463.446,270.482L472.804,295.044C472.804,295.044 488.499,294.546 493.961,294.832C498.428,295.066 499.393,290.889 521.199,324.734C527.425,334.397 555.409,382.93 555.409,382.93L586.531,383.086C586.531,383.086 530.661,293.744 519.244,287.63C517.393,286.639 550.44,278.487 549.934,241.007C549.57,213.999 530.374,199.775 513.441,193.556C492.401,185.829 486.497,187.409 477.293,187.102C467.26,186.768 456.82,188.12 456.82,188.12L413.272,257.574L376.409,186.954L346.851,186.948Z" style="stroke:black;stroke-width:0.51px;"/>
            </g>
        </g>
    </g>
</svg>
